ModelForces
version=1
nRows=4
nColumns=155
inDegrees=no

This file contains the forces exerted on a model during a simulation.

A force is a generalized force, meaning that it can be either a force (N) or a torque (Nm).

Units are S.I. units (second, meters, Newtons, ...)
Angles are in degrees.

endheader
time	glut_med1_r	glut_med2_r	glut_med3_r	glut_min1_r	glut_min2_r	glut_min3_r	semimem_r	semiten_r	bifemlh_r	bifemsh_r	sar_r	add_long_r	add_brev_r	add_mag1_r	add_mag2_r	add_mag3_r	tfl_r	pect_r	grac_r	glut_max1_r	glut_max2_r	glut_max3_r	iliacus_r	psoas_r	quad_fem_r	gem_r	peri_r	rect_fem_r	vas_med_r	vas_int_r	vas_lat_r	med_gas_r	lat_gas_r	soleus_r	tib_post_r	flex_dig_r	flex_hal_r	tib_ant_r	per_brev_r	per_long_r	per_tert_r	ext_dig_r	ext_hal_r	glut_med1_l	glut_med2_l	glut_med3_l	glut_min1_l	glut_min2_l	glut_min3_l	semimem_l	semiten_l	bifemlh_l	bifemsh_l	sar_l	add_long_l	add_brev_l	add_mag1_l	add_mag2_l	add_mag3_l	tfl_l	pect_l	grac_l	glut_max1_l	glut_max2_l	glut_max3_l	iliacus_l	psoas_l	quad_fem_l	gem_l	peri_l	rect_fem_l	vas_med_l	vas_int_l	vas_lat_l	med_gas_l	lat_gas_l	soleus_l	tib_post_l	flex_dig_l	flex_hal_l	tib_ant_l	per_brev_l	per_long_l	per_tert_l	ext_dig_l	ext_hal_l	ercspn_r	ercspn_l	intobl_r	intobl_l	extobl_r	extobl_l	femur_lat_meniscii_r.femur_lat_r.force.X	femur_lat_meniscii_r.femur_lat_r.force.Y	femur_lat_meniscii_r.femur_lat_r.force.Z	femur_lat_meniscii_r.femur_lat_r.torque.X	femur_lat_meniscii_r.femur_lat_r.torque.Y	femur_lat_meniscii_r.femur_lat_r.torque.Z	femur_lat_meniscii_r.meniscus_lat_r.force.X	femur_lat_meniscii_r.meniscus_lat_r.force.Y	femur_lat_meniscii_r.meniscus_lat_r.force.Z	femur_lat_meniscii_r.meniscus_lat_r.torque.X	femur_lat_meniscii_r.meniscus_lat_r.torque.Y	femur_lat_meniscii_r.meniscus_lat_r.torque.Z	femur_med_meniscii_r.femur_med_r.force.X	femur_med_meniscii_r.femur_med_r.force.Y	femur_med_meniscii_r.femur_med_r.force.Z	femur_med_meniscii_r.femur_med_r.torque.X	femur_med_meniscii_r.femur_med_r.torque.Y	femur_med_meniscii_r.femur_med_r.torque.Z	femur_med_meniscii_r.meniscus_med_r.force.X	femur_med_meniscii_r.meniscus_med_r.force.Y	femur_med_meniscii_r.meniscus_med_r.force.Z	femur_med_meniscii_r.meniscus_med_r.torque.X	femur_med_meniscii_r.meniscus_med_r.torque.Y	femur_med_meniscii_r.meniscus_med_r.torque.Z	femur_med_tibia_r.tibia_upper_r.force.X	femur_med_tibia_r.tibia_upper_r.force.Y	femur_med_tibia_r.tibia_upper_r.force.Z	femur_med_tibia_r.tibia_upper_r.torque.X	femur_med_tibia_r.tibia_upper_r.torque.Y	femur_med_tibia_r.tibia_upper_r.torque.Z	femur_med_tibia_r.femur_med_r.force.X	femur_med_tibia_r.femur_med_r.force.Y	femur_med_tibia_r.femur_med_r.force.Z	femur_med_tibia_r.femur_med_r.torque.X	femur_med_tibia_r.femur_med_r.torque.Y	femur_med_tibia_r.femur_med_r.torque.Z	femur_lat_tibia_r.tibia_upper_r.force.X	femur_lat_tibia_r.tibia_upper_r.force.Y	femur_lat_tibia_r.tibia_upper_r.force.Z	femur_lat_tibia_r.tibia_upper_r.torque.X	femur_lat_tibia_r.tibia_upper_r.torque.Y	femur_lat_tibia_r.tibia_upper_r.torque.Z	femur_lat_tibia_r.femur_lat_r.force.X	femur_lat_tibia_r.femur_lat_r.force.Y	femur_lat_tibia_r.femur_lat_r.force.Z	femur_lat_tibia_r.femur_lat_r.torque.X	femur_lat_tibia_r.femur_lat_r.torque.Y	femur_lat_tibia_r.femur_lat_r.torque.Z	aACL_R	pACL_R	aPCL_R	pPCL_R	aMCL_R	mMCL_R	pMCL_R	aLCL_R	mLCL_R	pLCL_R	aPCL_L	pPCL_L	aMCL_L	aLCL_L
      0.20953285	      9.71474159	      7.14999783	      7.67567449	      3.32255183	      3.89941256	      4.10729776	      0.00000000	    163.98635428	    182.70321506	    341.07989116	    122.51218434	      7.10322937	      5.16399011	      3.67790675	      3.10900810	      5.17295792	      3.32933066	      2.80158407	     92.80328688	      4.61447102	      7.01712526	      5.25991913	     25.35124127	     16.02745511	      4.55403740	      3.29475263	      5.57257780	    114.00706894	     40.82985415	     31.82318349	     56.14910148	      0.00000000	      0.00000000	      0.00000000	      0.00000000	      0.00000000	      0.00000000	     35.70892893	      1.32690272	      3.07874349	     23.09109114	     48.96170960	     11.82417593	      9.71474159	      7.14999783	      7.67567449	      3.32255183	      3.89941256	      4.10729776	     10.58617166	      5.24383345	     10.26207770	      9.06278801	      1.89708516	      7.10322937	      5.16399011	      3.67790675	      3.10900810	      5.17295792	      4.83115146	      2.80158407	      1.95330655	      4.61447102	      7.01712526	      5.25991913	     25.35124127	     16.02745511	      4.55403740	      3.29475263	      5.57257780	     14.20254006	      0.00000000	      0.00000000	      0.00000000	     19.33197932	      9.03104800	     42.98544011	     47.27736916	      4.17834529	      3.63902778	     11.12855335	      5.88851598	     15.83124168	      2.47921200	      7.87083312	      2.52096765	     31.26364384	     31.26364384	     11.47423803	     11.47423803	     29.03014941	     29.03014941	    160.11931664	     97.73120209	      9.33588221	     -5.96082590	      3.72515482	     63.57569089	   -160.11931664	    -97.73120209	     -9.33588221	      2.53835104	     -4.40334061	      2.22250954	      0.04908367	      0.00099093	     -0.03070958	      0.01222525	     -0.00076237	      0.01951463	     -0.04908367	     -0.00099093	      0.03070958	     -0.00011144	      0.00146499	     -0.00013023	   -894.12719549	   -368.10635602	    315.94725923	     -8.26679638	     21.84179011	      2.25085275	    894.12719549	    368.10635602	   -315.94725923	    133.84645907	    -15.64582411	    360.35702792	   -302.81271353	   -135.41573429	    -82.83245633	      4.41276765	    -10.48000922	      1.00378077	    302.81271353	    135.41573429	     82.83245633	    -36.72065681	      7.42972613	    122.09163813	      0.73517049	      0.00000000	    964.28070960	    608.79433718	     23.63785377	      9.29278270	      0.00000000	      0.00000000	      0.00000000	      0.00000000	      0.00000000	      0.00000000	      0.00000001	      0.00000000
      0.20954085	      9.71451432	      7.14984254	      7.67550572	      3.32248271	      3.89933725	      4.10720167	      0.00000000	    163.98948300	    182.70689566	    341.07238653	    122.51116578	      7.10307327	      5.16388367	      3.67782745	      3.10893934	      5.17283325	      3.32932444	      2.80152538	     92.80309840	      4.61437059	      7.01697213	      5.25980239	     25.35095707	     16.02713186	      4.55394056	      3.29470603	      5.57245335	    114.01835313	     40.82898388	   4383.22263270	     56.14776602	      0.00000000	      0.00000000	      0.00000000	      0.00000000	      0.00000000	      0.00000000	     35.70889998	      1.32635068	      3.07795818	     23.08509462	     48.95813816	     11.82311060	      9.71451432	      7.14984254	      7.67550572	      3.32248271	      3.89933725	      4.10720167	     10.58630594	      5.24371151	     10.26181345	      9.06259513	      1.89704587	      7.10307327	      5.16388367	      3.67782745	      3.10893934	      5.17283325	      4.83107430	      2.80152538	      1.95326539	      4.61437059	      7.01697213	      5.25980239	     25.35095707	     16.02713186	      4.55394056	      3.29470603	      5.57245335	     14.20217267	      0.00000000	      0.00000000	      0.00000000	     19.33159704	      9.03085845	     42.98430452	     47.27687160	      4.17810592	      3.63881437	     11.12827452	      5.88835745	     15.83091524	      2.47916212	      7.87072067	      2.52093445	     31.26299192	     31.26299192	     11.47397838	     11.47397838	     29.02991532	     29.02991532	    145.36470745	     97.98499470	     13.03773096	     -7.46553649	      3.42085318	     57.59796817	   -145.36470745	    -97.98499470	    -13.03773096	      2.58380396	     -4.16031548	      2.38853050	      0.04352497	      0.00140109	     -0.02738028	      0.01090510	     -0.00067731	      0.01730005	     -0.04352497	     -0.00140109	      0.02738028	     -0.00010315	      0.00130441	     -0.00009669	   -887.59274176	   -376.12248702	    310.70361402	     -8.28216321	     21.56955185	      2.64734970	    887.59274176	    376.12248702	   -310.70361402	    131.81568945	    -15.49838047	    357.60261292	   -300.18803125	   -138.63526426	    -84.73748526	      4.51649876	    -10.49475664	      1.17267591	    300.18803125	    138.63526426	     84.73748526	    -37.56725574	      7.39965313	    120.97553428	     -0.54862110	      0.00000000	    967.83619463	    618.46518759	     27.09945703	     13.60071634	      0.00000000	      0.00000000	      0.00000000	      0.00000000	      0.00000000	      0.00000000	      0.00000001	      0.00000000
      0.20954885	      9.71428707	      7.14968726	      7.67533696	      3.32241359	      3.89926195	      4.10710560	      0.00000000	    163.98725533	    182.70332488	    341.03382550	    122.50647641	      7.10291719	      5.16377725	      3.67774816	      3.10887060	      5.17270859	      3.32942878	      2.80146670	     92.79942153	      4.61427017	      7.01681902	      5.25968567	     25.35067290	     16.02680864	      4.55384374	      3.29465944	      5.57232890	    114.02467189	     40.82146631	   2642.50458806	     56.13776848	      0.00000000	      0.00000000	      0.00000000	      0.00000000	      0.00000000	      0.00000000	     35.70927539	      1.32573423	      3.07709631	     23.07929856	     48.95471038	     11.82210571	      9.71428707	      7.14968726	      7.67533696	      3.32241359	      3.89926195	      4.10710560	     10.58644003	      5.24358958	     10.26154923	      9.06240226	      1.89700659	      7.10291719	      5.16377725	      3.67774816	      3.10887060	      5.17270859	      4.83099715	      2.80146670	      1.95322423	      4.61427017	      7.01681902	      5.25968567	     25.35067290	     16.02680864	      4.55384374	      3.29465944	      5.57232890	     14.20180532	      0.00000000	      0.00000000	      0.00000000	     19.33121476	      9.03066890	     42.98316902	     47.27637409	      4.17786657	      3.63860100	     11.12799572	      5.88819894	     15.83058883	      2.47911225	      7.87060822	      2.52090125	     31.26234006	     31.26234006	     11.47371875	     11.47371875	     29.02968125	     29.02968125	    134.71271563	     97.72983715	     15.51032217	     -8.46044048	      3.19839280	     53.28806993	   -134.71271563	    -97.72983715	    -15.51032217	      2.60288100	     -3.97667449	      2.49085446	      0.03942292	      0.00161097	     -0.02489639	      0.00991919	     -0.00061431	      0.01566659	     -0.03942292	     -0.00161097	      0.02489639	     -0.00009625	      0.00118494	     -0.00007524	   -882.63621248	   -381.60800402	    306.90044230	     -8.28948292	     21.36966421	      2.92583340	    882.63621248	    381.60800402	   -306.90044230	    130.33819779	    -15.38839448	    355.51977524	   -298.24322319	   -140.84767411	    -86.08956036	      4.58829200	    -10.50332695	      1.29106916	    298.24322319	    140.84767411	     86.08956036	    -38.16651924	      7.37661104	    120.15071010	     -1.46730388	      0.00000000	    970.43401216	    625.46835336	     29.60214402	     16.71311593	      0.00000000	      0.00000000	      0.00000000	      0.00000000	      0.00000000	      0.00000000	      0.00000001	      0.00000000
      0.20958150	      9.71335998	      7.14905378	      7.67464849	      3.32213160	      3.89895476	      4.10671365	      0.00000000	    163.95859731	    182.66194812	    340.76494856	    122.47428770	      7.10228043	      5.16334306	      3.67742468	      3.10859015	      5.17220002	      3.33026953	      2.80122729	     92.77188130	      4.61386048	      7.01619438	      5.25920948	     25.34951358	     16.02549004	      4.55344873	      3.29446937	      5.57182112	    114.04115474	     40.76695292	    297.30776957	     56.06816588	      0.00000000	      0.00000000	      0.00000000	      0.00000000	      0.00000000	      0.00000000	     35.71227088	      1.32298530	      3.07329780	     23.05757593	     48.94124490	     11.81822567	      9.71335998	      7.14905378	      7.67464849	      3.32213160	      3.89895476	      4.10671365	     10.58698521	      5.24309215	     10.26047126	      9.06161543	      1.89684634	      7.10228043	      5.16334306	      3.67742468	      3.10859015	      5.17220002	      4.83068241	      2.80122729	      1.95305631	      4.61386048	      7.01619438	      5.25920948	     25.34951358	     16.02549004	      4.55344873	      3.29446937	      5.57182112	     14.20030665	      0.00000000	      0.00000000	      0.00000000	     19.32965479	      9.02989542	     42.97853629	     47.27434436	      4.17689001	      3.63773049	     11.12685828	      5.88755226	     15.82925712	      2.47890878	      7.87014929	      2.52076572	     31.25968068	     31.25968068	     11.47265955	     11.47265955	     29.02872632	     29.02872632	    121.02977404	     96.96085861	     18.24742145	     -9.55047390	      2.90721935	     47.75728036	   -121.02977404	    -96.96085861	    -18.24742145	      2.61134579	     -3.72352018	      2.60547025	      0.03365941	      0.00175989	     -0.02136865	      0.00851739	     -0.00052549	      0.01337272	     -0.03365941	     -0.00175989	      0.02136865	     -0.00008520	      0.00101578	     -0.00005015	   -874.73311707	   -387.32331008	    301.55497380	     -8.27612341	     21.07776471	      3.26000830	    874.73311707	    387.32331008	   -301.55497380	    128.23381306	    -15.22007057	    352.23001701	   -295.40026156	   -143.38151064	    -87.51135212	      4.66816796	    -10.49377033	      1.43849110	    295.40026156	    143.38151064	     87.51135212	    -38.80085565	      7.33567712	    118.95294147	     -2.60156168	      0.00000000	    974.02852214	    634.62639869	     32.81821874	     20.70492125	      0.00000000	      0.00000000	      0.00000000	      0.00000000	      0.00000000	      0.00000000	      0.00000001	      0.00000000
